<svg width="16" height="16" viewBox="0 0 12 12" fill="none" xmlns="http://www.w3.org/2000/svg">
<g clip-path="url(#clip0_19_9)">
<path d="M6.1123 0.5V0H6.11229L6.1123 0.5ZM9.86621 1.92969L10.2119 2.29095L10.5988 1.92072L10.2029 1.56008L9.86621 1.92969ZM8.28223 3.44531L7.94377 3.81334L8.28901 4.13084L8.6279 3.80658L8.28223 3.44531ZM6.1123 2.62695V2.12695L6.11189 2.12695L6.1123 2.62695ZM4.14746 3.25781L3.85677 2.851L3.85676 2.85101L4.14746 3.25781ZM2.91309 4.91211L2.68948 5.35932L3.20047 5.61482L3.38599 5.07448L2.91309 4.91211ZM2.91113 4.91113L3.13474 4.46392L2.55758 5.26469L2.91113 4.91113ZM2.91211 4.91211L3.38748 5.06709L3.48256 4.77546L3.26566 4.55856L2.91211 4.91211ZM2.73145 6H2.23144L2.23145 6.00244L2.73145 6ZM2.83887 6.82227L2.35503 6.94835L2.35763 6.95833L2.36064 6.9682L2.83887 6.82227ZM2.91992 7.08789L2.44169 7.23382L2.44674 7.25036L2.45291 7.26651L2.91992 7.08789ZM3.01367 7.33301L2.54666 7.51162L2.5503 7.52113L2.55432 7.53047L3.01367 7.33301ZM4.14941 8.74316L3.85835 9.14971L3.85839 9.14974L4.14941 8.74316ZM6.1123 9.37305V8.87305H6.11229L6.1123 9.37305ZM8.05762 8.82324L8.33975 9.23604L8.34047 9.23554L8.05762 8.82324ZM9.20508 7.03906L9.70138 7.09977L9.76997 6.53906H9.20508V7.03906ZM6.1123 7.03906H5.6123V7.53906H6.1123V7.03906ZM6.1123 4.99707V4.49707H5.6123V4.99707H6.1123ZM11.3818 4.99707L11.8686 4.88267L11.7779 4.49707H11.3818V4.99707ZM11.5 6.12207H12V6.12204L11.5 6.12207ZM9.82812 10.167L9.49285 9.79606L9.10272 10.1487L9.47457 10.5205L9.82812 10.167ZM9.8291 10.168L10.1651 10.5383L10.5538 10.1856L10.1827 9.81441L9.8291 10.168ZM6.1123 11.5L6.11229 12H6.1123V11.5ZM1.2832 8.79883L0.846796 9.04285L0.850931 9.05025L0.855314 9.0575L1.2832 8.79883ZM1.09863 8.46875L0.647145 8.6836L0.654206 8.69843L0.662226 8.71278L1.09863 8.46875ZM0.963867 8.18555L0.506482 8.38753L0.50934 8.39401L0.512379 8.40039L0.963867 8.18555ZM0.5 6L0 5.99965V6H0.5ZM1.09766 3.53125L0.744103 3.1777L0.688633 3.23317L0.652816 3.30296L1.09766 3.53125ZM1.09863 3.53027L1.45219 3.88383L1.50755 3.82846L1.54334 3.75883L1.09863 3.53027ZM6.1123 0.5V1C7.4991 1 8.64636 1.49475 9.52948 2.2993L9.86621 1.92969L10.2029 1.56008C9.14107 0.592676 7.75546 0 6.1123 0V0.5ZM9.86621 1.92969L9.52054 1.56842L7.93655 3.08405L8.28223 3.44531L8.6279 3.80658L10.2119 2.29095L9.86621 1.92969ZM8.28223 3.44531L8.62068 3.07728C8.14597 2.64071 7.31967 2.12695 6.1123 2.12695V2.62695V3.12695C7.01251 3.12695 7.6074 3.50401 7.94377 3.81334L8.28223 3.44531ZM6.1123 2.62695L6.11189 2.12695C5.30299 2.12763 4.51484 2.38077 3.85677 2.851L4.14746 3.25781L4.43815 3.66463C4.9269 3.31539 5.51211 3.12746 6.11272 3.12695L6.1123 2.62695ZM4.14746 3.25781L3.85676 2.85101C3.19907 3.32099 2.70302 3.98421 2.44018 4.74974L2.91309 4.91211L3.38599 5.07448C3.58088 4.50685 3.94902 4.01416 4.43816 3.66462L4.14746 3.25781ZM2.91309 4.91211L3.13669 4.4649L3.13474 4.46392L2.91113 4.91113L2.68753 5.35835L2.68948 5.35932L2.91309 4.91211ZM2.91113 4.91113L2.55758 5.26469L2.55856 5.26566L2.91211 4.91211L3.26566 4.55856L3.26469 4.55758L2.91113 4.91113ZM2.91211 4.91211L2.43674 4.75713C2.31164 5.14084 2.23145 5.56026 2.23145 6H2.73145H3.23145C3.23145 5.68174 3.28958 5.36738 3.38748 5.06709L2.91211 4.91211ZM2.73145 6L2.23145 6.00244C2.23301 6.32208 2.27463 6.63985 2.35503 6.94835L2.83887 6.82227L3.32271 6.69618C3.26333 6.46833 3.23259 6.23363 3.23144 5.99756L2.73145 6ZM2.83887 6.82227L2.36064 6.9682L2.44169 7.23382L2.91992 7.08789L3.39815 6.94196L3.3171 6.67633L2.83887 6.82227ZM2.91992 7.08789L2.45291 7.26651L2.54666 7.51162L3.01367 7.33301L3.48068 7.15439L3.38693 6.90927L2.91992 7.08789ZM3.01367 7.33301L2.55432 7.53047C2.83244 8.17747 3.28314 8.7379 3.85835 9.14971L4.14941 8.74316L4.44048 8.33662C4.01338 8.03084 3.67912 7.61497 3.47303 7.13554L3.01367 7.33301ZM4.14941 8.74316L3.85839 9.14974C4.51588 9.62036 5.30395 9.87307 6.11232 9.87305L6.1123 9.37305L6.11229 8.87305C5.5125 8.87306 4.92801 8.68558 4.44043 8.33658L4.14941 8.74316ZM6.1123 9.37305V9.87305C7.04285 9.87305 7.77818 9.61985 8.33975 9.23604L8.05762 8.82324L7.77549 8.41044C7.38909 8.67453 6.85259 8.87305 6.1123 8.87305V9.37305ZM8.05762 8.82324L8.34047 9.23554C9.21792 8.63358 9.62358 7.73578 9.70138 7.09977L9.20508 7.03906L8.70878 6.97835C8.66254 7.35635 8.39426 7.98594 7.77476 8.41094L8.05762 8.82324ZM9.20508 7.03906V6.53906H6.1123V7.03906V7.53906H9.20508V7.03906ZM6.1123 7.03906H6.6123V4.99707H6.1123H5.6123V7.03906H6.1123ZM6.1123 4.99707V5.49707H11.3818V4.99707V4.49707H6.1123V4.99707ZM11.3818 4.99707L10.8951 5.11147C10.9655 5.41086 11 5.70221 11 6.1221L11.5 6.12207L12 6.12204C12 5.63737 11.9592 5.26807 11.8686 4.88267L11.3818 4.99707ZM11.5 6.12207H11C11 7.6709 10.4375 8.94222 9.49285 9.79606L9.82812 10.167L10.1634 10.5379C11.3407 9.47377 12 7.92119 12 6.12207H11.5ZM9.82812 10.167L9.47457 10.5205L9.47555 10.5215L9.8291 10.168L10.1827 9.81441L10.1817 9.81344L9.82812 10.167ZM9.8291 10.168L9.49311 9.79768C8.6652 10.5489 7.51654 11 6.1123 11V11.5V12C7.73786 12 9.13404 11.4738 10.1651 10.5383L9.8291 10.168ZM6.1123 11.5L6.11232 11C4.23402 10.9999 2.59967 10.01 1.71109 8.54016L1.2832 8.79883L0.855314 9.0575C1.9204 10.8193 3.87513 11.9999 6.11229 12L6.1123 11.5ZM1.2832 8.79883L1.71961 8.5548L1.53504 8.22472L1.09863 8.46875L0.662226 8.71278L0.846796 9.04285L1.2832 8.79883ZM1.09863 8.46875L1.55012 8.2539L1.41535 7.9707L0.963867 8.18555L0.512379 8.40039L0.647145 8.6836L1.09863 8.46875ZM0.963867 8.18555L1.42125 7.98356C1.15132 7.37232 1 6.70273 1 6H0.5H0C3.27826e-07 6.84808 0.182926 7.65487 0.506482 8.38753L0.963867 8.18555ZM0.5 6L1 6.00035C1.00054 5.22104 1.18659 4.45305 1.5425 3.75954L1.09766 3.53125L0.652816 3.30296C0.224605 4.13736 0.000650942 5.06159 1.19209e-07 5.99965L0.5 6ZM1.09766 3.53125L1.45121 3.8848L1.45219 3.88383L1.09863 3.53027L0.745079 3.17672L0.744103 3.1777L1.09766 3.53125ZM1.09863 3.53027L1.54334 3.75883C2.38254 2.12594 4.10838 1.00007 6.11232 1L6.1123 0.5L6.11229 0C3.72591 8.39233e-08 1.6609 1.34239 0.653926 3.30172L1.09863 3.53027Z" fill="currentColor"/>
</g>
<defs>
<clipPath id="clip0_19_9">
<rect width="12" height="12" fill="white"/>
</clipPath>
</defs>
</svg>
