<svg width="96" height="116" viewBox="0 0 96 116" fill="none" xmlns="http://www.w3.org/2000/svg">
<path d="M56.0991 62.8524H88.0228C88.0228 88.0116 70.4085 100.591 49.4725 107.887C48.3762 108.259 47.1854 108.241 46.1006 107.837C25.1144 100.591 7.5 88.0116 7.5 62.8524V27.6296C7.5 26.2951 8.03023 25.0152 8.97404 24.0716C9.91785 23.1279 11.1979 22.5978 12.5327 22.5978C22.598 22.5978 35.1797 16.5596 43.9366 8.91118C45.0028 8.00041 47.7614 7.5 47.7614 7.5C47.7614 7.5 50.5201 8.00041 51.5863 8.91118C60.3934 16.6099 72.9248 22.5978 82.9902 22.5978H88.0228" stroke="#00BB7E" stroke-width="15" stroke-linecap="round" stroke-linejoin="round"/>
</svg>
